<svg xmlns="http://www.w3.org/2000/svg" version="1.1" xmlns:xlink="http://www.w3.org/1999/xlink" xmlns:svgjs="http://svgjs.dev/svgjs" viewBox="0 0 800 800" opacity="0.43"><defs><linearGradient x1="50%" y1="0%" x2="50%" y2="100%" id="ccchaos-grad"><stop stop-color="rgb(147,188,180)" stop-opacity="1" offset="0%"></stop><stop stop-color="hsl(0, 0%, 100%)" stop-opacity="1" offset="100%"></stop></linearGradient></defs><g stroke-width="1" stroke="url(#ccchaos-grad)" fill="none" stroke-linecap="round"><path d="M393.99 73.27C405.51 73.37 416.99 72.97 428.42 72.17 439.86 70.57 451.29 69.04 462.69 67.87 474.14 66.74 485.61 66.55 497.08 67.49 508.63 69.19 520.21 72.29 531.76 76.77 543.36 82.13 554.88 88.73 566.21 96.36 577.42 104.47 588.26 113.22 598.55 122.39 608.42 131.48 617.5 140.63 625.62 149.7 633.08 158.29 639.48 166.67 644.79 174.81 649.61 182.36 653.63 189.74 657.08 197.02 660.8 203.84 664.6 210.71 668.82 217.72 674.19 224.49 680.43 231.56 687.59 238.97 695.9 246.32 704.69 254.12 713.46 262.37 722.02 270.65 729.39 279.42 734.98 288.64 738.85 297.91 740.36 307.63 739.56 317.74 737.45 327.89 734.07 338.4 730.21 349.23 727.31 360.07 725.47 371.22 725.14 382.64 727.02 394.06 730.14 405.49 733.82 416.93 737.89 428.38 740.86 439.88 742.04 451.42 741.54 463.05 738.59 474.78 733.34 486.64 726.64 498.64 718.54 510.83 709.75 523.19 701.22 535.72 693.09 548.42 685.75 561.24 679.76 574.12 674.71 586.99 670.42 599.7 667.1 612.18 663.91 624.21 660.49 635.56 657.04 646.23 652.73 655.85 647.4 664.17 641.4 671.41 634.23 677.11 625.98 681.15 617.07 684.12 607.28 685.58 596.83 685.73 586.04 685.48 574.86 684.59 563.44 683.48 551.99 683.23 540.47 683.67 528.94 685.24 517.51 688.73 506.11 693.82 494.75 700.53 483.5 709.06 472.24 718.67 460.97 728.79 449.76 739.14 438.49 748.61 427.16 756.37 415.84 762.27 404.43 765.29 392.94 765.05 381.45 762.15 370.15 756.34 359.07 748.25 347.99 739.06 337.14 729.07 326.57 719.1 316.01 710.21 305.74 702.53 295.78 696.41 285.85 692.45 276.24 690.13 266.97 689.22 257.68 689.93 248.69 691.23 240.01 692.62 231.22 694.26 222.66 695.04 214.3 694.6 205.75 693.27 197.31 690.23 189 685.45 180.43 679.41 171.97 671.7 163.66 662.55 155.19 652.42 146.97 641.24 139.09 629.29 131.28 616.91 123.99 604.15 117.31 591.23 110.92 578.32 105.24 565.48 100.31 552.81 95.65 540.37 91.64 528.15 88.23 516.17 84.81 504.43 81.78 492.87 79.06 481.46 76.05 470.22 73.24 459.04 70.66 447.88 67.82 436.8 65.34 425.67 63.36 414.47 61.46 403.29 60.3 391.99 60.01 380.6 60.06 369.21 61.02 357.99 62.79 346.97 64.73 335.97 67.26 325.21 70.25 314.74 73.04 304.33 76.09 294.26 79.34 284.59 82.28 275.02 85.46 265.9 88.94 257.29 92.33 248.78 96.23 240.78 100.7 233.31 105.39 225.89 110.79 218.94 116.92 212.42 123.34 205.8 130.45 199.47 138.13 193.35 145.97 186.89 154.24 180.44 162.82 173.92 171.33 166.82 180.03 159.51 188.86 151.94 197.48 143.74 206.2 135.32 215.02 126.76 223.63 117.84 232.4 109.07 241.34 100.65 250.15 92.43 259.21 84.98 268.54 78.56 277.81 72.91 287.39 68.58 297.27 65.7 307.15 63.73 317.35 63.12 327.84 63.75 338.33 64.79 349.11 66.56 360.15 68.77 371.18 70.49 382.47 72.06 393.99 73.27" stroke-dasharray="17 7" transform="rotate(0, 400, 400)" opacity="0.05"></path><path d="M396.65 86.58C407.78 86.69 418.93 86.34 430.07 85.61 441.23 84.1 452.4 82.62 463.56 81.42 474.77 80.21 485.98 79.82 497.17 80.44 508.39 81.72 519.57 84.31 530.65 88.2 541.67 92.94 552.49 98.9 562.98 105.92 573.25 113.5 583.02 121.83 592.14 130.68 600.81 139.58 608.66 148.68 615.58 157.82 621.98 166.62 627.46 175.28 632.09 183.76 636.51 191.72 640.41 199.51 644.06 207.15 648.21 214.33 652.65 221.48 657.63 228.68 663.73 235.58 670.61 242.65 678.21 249.98 686.66 257.15 695.29 264.68 703.61 272.58 711.48 280.44 718.03 288.73 722.76 297.44 725.89 306.15 726.85 315.3 725.76 324.86 723.61 334.42 720.4 344.38 716.84 354.71 714.25 365.04 712.62 375.73 712.35 386.76 714.09 397.8 716.94 408.94 720.34 420.15 724.17 431.39 727.08 442.73 728.45 454.18 728.39 465.7 726.09 477.36 721.63 489.16 715.72 501.05 708.33 513.1 700.02 525.26 691.69 537.5 683.47 549.8 675.76 562.09 669.15 574.3 663.37 586.33 658.35 598.02 654.37 609.36 650.72 620.08 647.11 629.97 643.75 639.14 639.85 647.19 635.21 653.94 630.15 659.72 624.08 664.08 617.03 666.99 609.39 669.08 600.84 669.96 591.53 669.85 581.81 669.65 571.55 669.12 560.9 668.63 550.1 669.15 539.08 670.49 527.95 672.96 516.83 677.24 505.66 682.97 494.5 690.08 483.4 698.75 472.3 708.23 461.21 718 450.16 727.82 439.11 736.68 428.04 743.87 417 749.29 405.92 752.02 394.83 751.75 383.73 749.04 372.88 743.62 362.28 736.06 351.68 727.41 341.33 717.89 331.27 708.25 321.21 699.45 311.43 691.61 301.95 685.09 292.45 680.49 283.24 677.39 274.31 675.64 265.32 675.5 256.58 676.09 248.06 676.99 239.4 678.37 230.9 679.22 222.55 679.18 214 678.56 205.54 676.52 197.19 672.98 188.64 668.37 180.22 662.2 171.99 654.6 163.7 646.04 155.7 636.33 148.12 625.71 140.69 614.52 133.81 602.77 127.57 590.66 121.64 578.39 116.39 566.01 111.87 553.65 107.56 541.37 103.84 529.21 100.65 517.23 97.41 505.41 94.48 493.76 91.81 482.27 88.83 470.92 86.03 459.68 83.44 448.54 80.61 437.47 78.13 426.44 76.15 415.43 74.26 404.46 73.1 393.47 72.8 382.49 72.85 371.51 73.79 360.79 75.53 350.36 77.46 339.93 79.98 329.81 82.95 320.04 85.74 310.3 88.79 300.94 92.03 292.01 94.94 283.12 98.05 274.67 101.41 266.69 104.63 258.75 108.28 251.26 112.44 244.21 116.74 237.12 121.72 230.4 127.38 223.99 133.33 217.38 139.97 210.94 147.21 204.61 154.67 197.87 162.62 191.07 170.94 184.14 179.28 176.65 187.87 168.94 196.63 161.02 205.25 152.58 213.98 144 222.82 135.4 231.45 126.6 240.2 118.05 249.09 109.97 257.81 102.22 266.73 95.3 275.85 89.45 284.87 84.38 294.15 80.6 303.69 78.19 313.19 76.63 322.97 76.31 333.04 77.12 343.08 78.26 353.42 80.05 364.03 82.21 374.62 83.88 385.5 85.4 396.64 86.58" stroke-dasharray="9 15" transform="rotate(3.56, 400, 400)" opacity="0.09"></path><path d="M400 99.88C410.77 100.02 421.57 99.72 432.37 99.05 443.17 97.63 453.99 96.21 464.8 95.02 475.61 93.75 486.4 93.19 497.11 93.53 507.8 94.43 518.36 96.53 528.72 99.85 538.96 103.96 548.88 109.28 558.38 115.66 567.6 122.64 576.25 130.43 584.2 138.85 591.75 147.44 598.52 156.36 604.48 165.43 610.07 174.3 614.96 183.13 619.25 191.85 623.57 200.15 627.64 208.3 631.71 216.3 636.42 223.87 641.54 231.36 647.24 238.84 653.95 245.98 661.29 253.21 669.13 260.6 677.52 267.78 685.82 275.22 693.56 282.96 700.67 290.59 706.38 298.59 710.31 306.95 712.75 315.28 713.23 324.01 711.92 333.14 709.77 342.24 706.77 351.76 703.51 361.66 701.2 371.55 699.77 381.83 699.56 392.5 701.17 403.18 703.77 414 706.88 424.94 710.46 435.9 713.29 447.01 714.8 458.24 715.1 469.51 713.39 480.92 709.68 492.45 704.57 504.02 697.92 515.68 690.21 527.38 682.24 539.06 674.11 550.69 666.21 562.17 659.15 573.46 652.76 584.43 647.06 594.9 642.37 604.94 638.14 614.25 634.14 622.65 630.59 630.34 626.79 636.92 622.53 642.26 618.08 646.78 612.86 650.05 606.81 652.09 600.29 653.59 592.91 654.17 584.76 654.05 576.2 654.12 567 654.09 557.31 654.32 547.39 655.66 537.12 657.86 526.63 661.17 516.07 666.15 505.37 672.4 494.61 679.81 483.86 688.51 473.07 697.79 462.28 707.16 451.52 716.44 440.75 724.7 430 731.32 419.27 736.29 408.53 738.75 397.81 738.45 387.09 735.92 376.63 730.88 366.45 723.83 356.25 715.71 346.32 706.69 336.66 697.41 326.99 688.76 317.58 680.85 308.43 674.03 299.24 668.88 290.29 665.07 281.58 662.53 272.76 661.55 264.14 661.39 255.68 661.68 247.07 662.65 238.58 663.36 230.21 663.48 221.65 663.3 213.2 662.01 204.86 659.46 196.39 656.06 188.1 651.26 180.05 645.12 172.02 638.09 164.36 629.88 157.16 620.68 150.17 610.85 143.75 600.3 138 589.24 132.53 577.89 127.73 566.27 123.58 554.51 119.61 542.71 116.15 530.91 113.15 519.19 110.03 507.55 107.18 496.02 104.54 484.64 101.59 473.35 98.79 462.19 96.19 451.16 93.37 440.19 90.9 429.32 88.92 418.54 87.05 407.79 85.9 397.11 85.59 386.52 85.63 375.92 86.55 365.66 88.26 355.74 90.16 345.82 92.66 336.25 95.6 327.07 98.4 317.89 101.45 309.1 104.67 300.73 107.58 292.37 110.65 284.41 113.92 276.88 117 269.31 120.44 262.13 124.32 255.29 128.28 248.34 132.85 241.65 138.04 235.17 143.51 228.42 149.64 221.75 156.39 215.1 163.39 208.02 170.92 200.84 178.89 193.5 186.95 185.67 195.32 177.64 203.93 169.47 212.46 160.89 221.15 152.28 229.95 143.76 238.6 135.18 247.36 126.97 256.22 119.33 264.93 112.1 273.78 105.77 282.79 100.51 291.69 96.02 300.78 92.78 310.09 90.83 319.34 89.64 328.83 89.59 338.57 90.56 348.28 91.78 358.26 93.56 368.5 95.67 378.72 97.28 389.22 98.74 399.99 99.88" stroke-dasharray="4 12" transform="rotate(7.12, 400, 400)" opacity="0.13"></path><path d="M403.36 113.18C413.76 113.34 424.16 113.09 434.54 112.5 444.93 111.17 455.3 109.83 465.6 108.65 475.89 107.35 486.1 106.66 496.16 106.76 506.16 107.32 515.95 108.97 525.44 111.74 534.78 115.25 543.72 119.9 552.17 125.61 560.35 131.94 567.94 139.13 574.86 147.02 581.47 155.18 587.41 163.78 592.68 172.64 597.79 181.43 602.4 190.28 606.65 199.12 611.13 207.64 615.58 216.07 620.19 224.38 625.52 232.3 631.29 240.14 637.6 247.92 644.76 255.37 652.37 262.85 660.23 270.41 668.38 277.74 676.19 285.24 683.25 292.95 689.56 300.53 694.44 308.39 697.61 316.56 699.45 324.66 699.53 333.11 698.07 341.92 695.96 350.7 693.17 359.86 690.21 369.4 688.17 378.93 686.94 388.85 686.77 399.16 688.25 409.47 690.61 419.94 693.45 430.54 696.78 441.16 699.49 451.92 701.09 462.79 701.7 473.68 700.51 484.67 697.49 495.72 693.16 506.76 687.28 517.82 680.24 528.81 672.76 539.71 664.88 550.45 657 560.9 649.68 571.1 642.83 580.85 636.56 590 631.2 598.69 626.33 606.59 621.82 613.56 617.88 619.88 613.92 625.15 609.73 629.3 603.25 634.03 586.77 638.17 576.49 638.54 569.04 639.02 560.93 639.63 552.27 640.64 543.35 642.78 534 645.81 524.32 649.88 514.52 655.45 504.49 662.1 494.31 669.7 484.1 678.34 473.79 687.35 463.44 696.27 453.09 704.99 442.72 712.65 432.34 718.74 421.97 723.26 411.6 725.48 401.25 725.14 390.9 722.79 380.81 718.12 370.98 711.56 361.13 703.97 351.53 695.45 342.19 686.56 332.81 678.14 323.66 670.23 314.74 663.2 305.75 657.6 296.96 653.18 288.35 649.92 279.64 648.13 271.06 647.18 262.62 646.81 254.04 647.23 245.56 647.63 237.18 647.69 228.67 647.71 220.28 646.9 212.05 645.08 203.75 642.65 195.69 639 187.94 634.15 180.28 628.52 173.04 621.75 166.3 613.98 159.8 605.56 153.9 596.35 148.63 586.5 143.64 576.28 139.25 565.64 135.46 554.74 131.78 543.68 128.54 532.51 125.69 521.31 122.68 510.1 119.88 498.93 117.25 487.86 114.3 476.83 111.5 465.91 108.9 455.12 106.09 444.37 103.64 433.74 101.67 423.25 99.83 412.77 98.7 402.41 98.38 392.19 98.42 381.97 99.31 372.11 100.97 362.63 102.85 353.14 105.31 344.03 108.22 335.3 111.01 326.56 114.05 318.2 117.27 310.23 120.18 302.23 123.23 294.59 126.44 287.31 129.43 279.95 132.71 272.88 136.34 266.08 140 259.1 144.19 252.29 148.94 245.61 153.92 238.63 159.54 231.66 165.76 224.64 172.24 217.22 179.27 209.67 186.79 201.99 194.46 193.88 202.5 185.65 210.83 177.33 219.17 168.75 227.72 160.24 236.41 151.93 245.01 143.69 253.74 135.91 262.56 128.79 271.26 122.14 280.08 116.42 289.01 111.76 297.84 107.86 306.83 105.13 315.98 103.62 325.06 102.77 334.35 102.96 343.84 104.05 353.29 105.33 362.98 107.1 372.9 109.14 382.8 110.69 392.96 112.08 403.35 113.18" stroke-dasharray="4 14" transform="rotate(10.68, 400, 400)" opacity="0.16"></path><path d="M406.01 126.49C416.01 126.66 425.97 126.46 435.87 125.95 445.77 124.72 455.59 123.46 465.29 122.33 474.96 121.01 484.48 120.23 493.78 120.12 502.99 120.39 511.93 121.62 520.51 123.89 528.92 126.81 536.91 130.81 544.38 135.84 551.64 141.49 558.34 148.02 564.45 155.29 570.37 162.92 575.76 171.06 580.66 179.58 585.57 188.13 590.19 196.86 594.64 205.67 599.47 214.28 604.42 222.85 609.62 231.36 615.53 239.57 621.86 247.69 628.62 255.76 636.04 263.52 643.7 271.27 651.38 279.05 659.12 286.6 666.32 294.25 672.64 302.04 678.13 309.67 682.22 317.52 684.7 325.61 686 333.61 685.76 341.9 684.2 350.49 682.17 359.05 679.6 367.94 676.95 377.17 675.16 386.39 674.1 395.97 673.98 405.92 675.34 415.86 677.48 425.94 680.04 436.13 683.12 446.33 685.7 456.63 687.34 467 688.19 477.37 687.45 487.78 685.06 498.17 681.47 508.51 676.37 518.78 670.06 528.88 663.17 538.84 655.7 548.53 648 557.83 640.63 566.85 633.51 575.33 626.8 583.15 620.87 590.53 615.4 597.1 610.32 602.78 603.72 610.01 590.87 619.04 583.75 621.17 578.73 622.27 573.12 622.97 566.89 623.47 560.39 624.51 553.28 625.81 545.61 627.62 537.71 630.55 529.32 634.32 520.54 639.05 511.61 645.09 502.38 652.03 492.92 659.71 483.4 668.2 473.71 676.88 463.92 685.32 454.11 693.47 444.21 700.55 434.28 706.11 424.36 710.22 414.4 712.2 404.43 711.84 394.46 709.65 384.72 705.33 375.2 699.25 365.67 692.19 356.35 684.18 347.24 675.71 338.1 667.55 329.15 659.73 320.37 652.58 311.54 646.64 302.85 641.71 294.31 637.8 285.67 635.25 277.14 633.54 268.72 632.46 260.2 632.25 251.78 632.19 243.48 632.01 235.1 632.01 226.88 631.42 218.87 630.08 210.87 628.34 203.15 625.6 195.8 621.83 188.6 617.42 181.86 611.96 175.64 605.52 169.68 598.5 164.29 590.64 159.51 582.08 154.96 573.11 150.96 563.61 147.49 553.73 144.06 543.64 141 533.3 138.25 522.83 135.31 512.29 132.54 501.7 129.91 491.13 126.97 480.56 124.16 470.05 121.56 459.64 118.77 449.25 116.35 438.97 114.41 428.82 112.61 418.68 111.49 408.67 111.17 398.82 111.2 388.96 112.06 379.47 113.67 370.36 115.5 361.24 117.92 352.49 120.78 344.1 123.56 335.68 126.6 327.62 129.81 319.89 132.73 312.11 135.78 304.63 138.96 297.43 141.88 290.12 145.03 283.03 148.48 276.12 151.89 269.01 155.75 261.99 160.09 255.03 164.61 247.77 169.72 240.47 175.39 233.11 181.32 225.39 187.8 217.55 194.79 209.61 201.97 201.35 209.57 193.02 217.52 184.71 225.53 176.26 233.81 167.98 242.29 160.01 250.73 152.2 259.33 144.95 268.05 138.41 276.68 132.39 285.43 127.29 294.28 123.25 303.04 119.91 311.94 117.67 320.96 116.56 329.91 116.02 339.03 116.41 348.3 117.61 357.54 118.92 366.97 120.65 376.59 122.62 386.19 124.1 396 125.43 406 126.49" stroke-dasharray="14 13" transform="rotate(14.24, 400, 400)" opacity="0.20"></path><path d="M407.38 139.79C416.95 139.98 426.43 139.83 435.8 139.39 445.15 138.27 454.37 137.1 463.41 136.03 472.41 134.73 481.19 133.88 489.69 133.61 498.12 133.62 506.22 134.5 513.93 136.29 521.5 138.66 528.65 142.04 535.32 146.39 541.84 151.34 547.88 157.17 553.45 163.76 558.96 170.77 564.08 178.36 568.89 186.39 573.85 194.57 578.69 203.03 583.52 211.64 588.79 220.17 594.26 228.75 600.02 237.32 606.4 245.68 613.13 254 620.14 262.26 627.61 270.28 635.13 278.28 642.46 286.26 649.64 294.04 656.15 301.87 661.68 309.78 666.37 317.54 669.71 325.44 671.57 333.52 672.42 341.5 671.94 349.7 670.33 358.15 668.42 366.55 666.08 375.22 663.71 384.19 662.17 393.13 661.27 402.39 661.19 411.95 662.43 421.51 664.36 431.16 666.67 440.86 669.49 450.57 671.92 460.33 673.56 470.08 674.58 479.81 674.23 489.51 672.41 499.11 669.5 508.63 665.16 517.98 659.6 527.08 653.38 536.01 646.45 544.59 639.09 552.7 631.85 560.53 624.66 567.78 617.7 574.35 611.35 580.53 605.37 585.94 599.76 590.53 592.38 596.38 578.75 603.73 571.78 605.69 567.08 606.94 561.94 607.99 556.33 609.02 550.56 610.69 544.26 612.72 537.46 615.3 530.46 618.95 522.98 623.39 515.09 628.65 507.06 635.04 498.67 642.16 489.99 649.81 481.23 658.07 472.25 666.36 463.09 674.31 453.9 681.88 444.58 688.39 435.16 693.44 425.73 697.16 416.23 698.92 406.67 698.54 397.11 696.51 387.72 692.53 378.51 686.91 369.28 680.36 360.22 672.86 351.33 664.84 342.41 656.99 333.63 649.33 324.99 642.15 316.29 635.97 307.72 630.62 299.26 626.16 290.72 622.93 282.29 620.49 273.97 618.7 265.59 617.81 257.32 617.19 249.21 616.63 241.09 616.4 233.16 615.81 225.49 614.7 217.9 613.4 210.64 611.31 203.79 608.36 197.12 604.95 190.93 600.6 185.27 595.36 179.84 589.61 174.97 583.04 170.65 575.75 166.51 568.05 162.85 559.77 159.64 551.02 156.42 542.02 153.49 532.67 150.82 523.1 147.92 513.4 145.16 503.57 142.52 493.67 139.58 483.73 136.77 473.79 134.17 463.89 131.42 453.99 129.03 444.15 127.13 434.42 125.37 424.7 124.28 415.07 123.96 405.59 123.98 396.1 124.81 386.96 126.36 378.17 128.14 369.36 130.5 360.88 133.31 352.73 136.06 344.55 139.08 336.66 142.28 329.06 145.22 321.38 148.27 313.93 151.43 306.71 154.32 299.35 157.4 292.14 160.7 285.04 163.91 277.74 167.49 270.48 171.49 263.23 175.59 255.7 180.21 248.12 185.36 240.47 190.72 232.53 196.63 224.51 203.04 216.45 209.66 208.15 216.73 199.89 224.18 191.73 231.75 183.54 239.63 175.61 247.76 168.09 255.92 160.82 264.27 154.16 272.77 148.25 281.23 142.88 289.82 138.42 298.52 134.97 307.16 132.17 315.92 130.4 324.77 129.64 333.58 129.38 342.52 129.94 351.57 131.21 360.6 132.54 369.76 134.23 379.06 136.11 388.35 137.51 397.79 138.77 407.37 139.79" stroke-dasharray="13 6" transform="rotate(17.8, 400, 400)" opacity="0.24"></path><path d="M407.19 153.09C416.3 153.3 425.27 153.2 434.07 152.84 442.85 151.83 451.45 150.76 459.82 149.75 468.15 148.5 476.21 147.61 483.98 147.22 491.67 147.02 499.03 147.58 506.01 148.96 512.89 150.82 519.38 153.61 525.47 157.3 531.48 161.56 537.13 166.67 542.42 172.54 547.77 178.86 552.87 185.8 557.81 193.25 563 200.93 568.18 208.95 573.45 217.22 579.17 225.51 585.11 233.93 591.31 242.41 598.02 250.77 604.95 259.13 612.01 267.48 619.33 275.65 626.51 283.79 633.33 291.93 639.86 299.88 645.62 307.86 650.36 315.88 654.29 323.76 656.94 331.73 658.27 339.81 658.74 347.81 658.08 355.96 656.48 364.28 654.7 372.56 652.6 381.05 650.51 389.75 649.2 398.44 648.44 407.36 648.4 416.52 649.53 425.67 651.26 434.85 653.32 444.01 655.89 453.17 658.15 462.3 659.76 471.36 660.9 480.38 660.87 489.29 659.53 498.01 657.25 506.65 653.63 515.04 648.83 523.1 643.33 530.98 637.02 538.46 630.16 545.43 623.22 552.15 616.15 558.28 609.13 563.75 602.53 568.91 596.19 573.38 590.14 577.12 582.02 581.98 567.29 588.44 560.14 590.56 553.03 592.89 537.15 599.01 528.14 603.69 521.88 607.98 515.18 612.96 508.07 618.65 500.85 625.27 493.26 632.44 485.35 639.98 477.36 647.94 469.1 655.8 460.61 663.22 452.09 670.21 443.37 676.16 434.5 680.73 425.63 684.08 416.61 685.63 407.49 685.23 398.37 683.36 389.36 679.7 380.47 674.53 371.58 668.48 362.8 661.49 354.14 653.94 345.45 646.45 336.88 639 328.41 631.87 319.9 625.56 311.49 619.9 303.19 614.99 294.85 611.16 286.61 608.06 278.49 605.58 270.36 604 262.38 602.77 254.6 601.72 246.85 601.11 239.34 600.33 232.13 599.22 225.05 598.11 218.33 596.41 212.05 594.03 205.95 591.36 200.34 587.9 195.23 583.65 190.34 579.01 185.94 573.59 182.05 567.47 178.27 560.99 174.9 553.9 171.89 546.3 168.82 538.43 165.99 530.16 163.36 521.57 160.48 512.83 157.72 503.87 155.06 494.76 152.12 485.59 149.32 476.34 146.74 467.05 144.03 457.75 141.7 448.46 139.84 439.21 138.13 429.97 137.07 420.78 136.76 411.67 136.77 402.57 137.55 393.76 139.04 385.25 140.76 376.73 143.04 368.48 145.78 360.5 148.49 352.47 151.48 344.69 154.67 337.13 157.62 329.48 160.68 322.01 163.84 314.69 166.73 307.23 169.76 299.86 172.96 292.56 176.03 285.07 179.39 277.58 183.09 270.08 186.84 262.35 191.03 254.58 195.69 246.76 200.52 238.72 205.85 230.65 211.67 222.61 217.68 214.44 224.16 206.38 231.03 198.52 238.06 190.72 245.43 183.27 253.09 176.3 260.82 169.64 268.79 163.62 276.94 158.38 285.11 153.66 293.43 149.83 301.86 146.95 310.28 144.66 318.81 143.31 327.43 142.88 336.02 142.85 344.72 143.55 353.5 144.87 362.26 146.19 371.13 147.81 380.08 149.6 389.02 150.93 398.06 152.12 407.18 153.09" stroke-dasharray="8 2" transform="rotate(21.36, 400, 400)" opacity="0.28"></path><path d="M405.47 166.4C414.1 166.61 422.54 166.56 430.77 166.27 439 165.38 446.99 164.42 454.73 163.49 462.44 162.3 469.88 161.41 477.01 160.93 484.09 160.57 490.85 160.87 497.27 161.88 503.66 163.29 509.71 165.53 515.44 168.61 521.18 172.19 526.66 176.58 531.91 181.73 537.29 187.31 542.55 193.54 547.76 200.32 553.25 207.37 558.81 214.85 564.5 222.63 570.6 230.52 576.89 238.61 583.36 246.84 590.2 255.02 597.13 263.28 604.04 271.55 611.02 279.72 617.71 287.89 623.91 296.06 629.71 304.09 634.69 312.14 638.67 320.2 641.88 328.16 643.93 336.16 644.8 344.22 644.98 352.2 644.2 360.29 642.65 368.48 641.03 376.63 639.17 384.92 637.34 393.35 636.24 401.77 635.62 410.34 635.61 419.07 636.64 427.79 638.17 436.46 640 445.04 642.33 453.61 644.4 462.08 645.95 470.39 647.16 478.67 647.37 486.76 646.46 494.59 644.73 502.34 641.78 509.77 637.71 516.83 632.95 523.73 627.33 530.2 621.06 536.15 614.58 541.89 607.8 547.08 600.91 551.67 594.27 556.03 587.75 559.79 581.41 562.95 572.69 567.21 556.77 573.48 549.24 576.03 544.45 578.04 539.52 580.13 534.38 582.43 529.31 585.41 523.92 588.84 518.21 592.78 512.46 597.6 506.34 603.01 499.85 608.99 493.3 615.73 486.4 622.85 479.17 630.18 471.89 637.78 464.31 645.16 456.47 652.05 448.6 658.47 440.49 663.87 432.19 667.98 423.88 670.98 415.38 672.33 406.73 671.93 398.08 670.21 389.48 666.86 380.96 662.11 372.43 656.55 363.98 650.07 355.6 643 347.22 635.9 338.91 628.73 330.7 621.73 322.47 615.38 314.32 609.52 306.29 604.26 298.24 599.94 290.32 596.25 282.54 593.15 274.8 590.89 267.23 589.03 259.89 587.42 252.63 586.32 245.65 585.21 239.01 583.92 232.51 582.78 226.39 581.23 220.7 579.18 212.68 575.57 199.19 564.68 193.68 557.36 190.19 551.96 187.05 545.97 184.2 539.44 181.24 532.68 178.46 525.47 175.84 517.89 172.97 510.15 170.19 502.13 167.52 493.88 164.59 485.55 161.81 477.06 159.25 468.47 156.61 459.85 154.33 451.17 152.53 442.46 150.88 433.75 149.86 425.03 149.55 416.34 149.55 407.64 150.29 399.17 151.71 390.92 153.36 382.67 155.56 374.62 158.22 366.77 160.87 358.89 163.82 351.18 166.98 343.62 169.93 335.99 173 328.47 176.16 321.04 179.06 313.49 182.07 305.99 185.22 298.53 188.2 290.9 191.4 283.26 194.88 275.61 198.33 267.79 202.16 259.94 206.39 252.09 210.73 244.1 215.52 236.15 220.76 228.28 226.17 220.39 232.02 212.68 238.27 205.24 244.68 197.96 251.46 191.08 258.55 184.73 265.75 178.73 273.21 173.4 280.89 168.83 288.63 164.76 296.54 161.54 304.59 159.2 312.65 157.38 320.84 156.41 329.12 156.26 337.4 156.43 345.77 157.23 354.2 158.57 362.63 159.86 371.13 161.42 379.68 163.11 388.23 164.35 396.84 165.47 405.46 166.4" stroke-dasharray="8 8" transform="rotate(24.92, 400, 400)" opacity="0.32"></path><path d="M402.6 179.7C410.72 179.93 418.64 179.92 426.34 179.71 434.02 178.93 441.48 178.08 448.67 177.25 455.85 176.13 462.76 175.26 469.4 174.74 476.01 174.27 482.35 174.35 488.41 175.05 494.47 176.06 500.28 177.82 505.87 180.32 511.52 183.26 517.01 186.97 522.37 191.39 527.91 196.22 533.41 201.71 538.92 207.75 544.72 214.11 550.62 220.92 556.62 228.1 562.97 235.45 569.43 243.06 575.97 250.87 582.74 258.72 589.46 266.69 596.02 274.73 602.51 282.73 608.59 290.78 614.09 298.83 619.14 306.81 623.35 314.81 626.6 322.8 629.17 330.73 630.69 338.67 631.19 346.64 631.15 354.55 630.31 362.52 628.85 370.53 627.4 378.52 625.78 386.57 624.2 394.7 623.3 402.82 622.8 411.02 622.82 419.28 623.75 427.55 625.11 435.69 626.72 443.67 628.8 451.64 630.68 459.43 632.15 467.01 633.38 474.55 633.77 481.83 633.2 488.82 631.95 495.72 629.62 502.28 626.24 508.44 622.21 514.47 617.31 520.07 611.7 525.17 605.78 530.13 599.45 534.58 592.88 538.51 586.39 542.31 579.87 545.61 573.43 548.44 567.32 551.25 561.34 553.67 555.53 555.79 547.39 559.14 531.82 566.17 524.08 570.45 519.02 574.05 513.77 578.06 508.28 582.54 502.82 587.77 497.07 593.49 491.03 599.63 484.97 606.36 478.6 613.34 471.93 620.38 465.23 627.57 458.24 634.45 450.98 640.78 443.71 646.64 436.18 651.52 428.43 655.19 420.67 657.86 412.7 659.04 404.54 658.63 396.39 657.04 388.24 653.99 380.13 649.65 372.03 644.56 363.96 638.59 355.96 632.01 347.95 625.33 340.01 618.49 332.14 611.7 324.29 605.39 316.52 599.43 308.88 593.94 301.26 589.23 293.77 585.06 286.47 581.41 279.22 578.53 272.18 576.04 265.4 573.85 258.72 572.22 252.35 570.66 246.31 569.06 237.68 566.9 222.65 560.98 216.31 556.79 210.53 551.81 200.75 538.65 196.52 530.56 193.62 524.8 190.87 518.57 188.25 511.95 185.37 505.18 182.58 498.08 179.89 490.69 176.99 483.23 174.24 475.54 171.73 467.68 169.15 459.78 166.95 451.74 165.2 443.61 163.62 435.48 162.64 427.26 162.34 419 162.33 410.74 163.03 402.61 164.37 394.65 165.94 386.67 168.05 378.83 170.61 371.13 173.2 363.39 176.08 355.76 179.19 348.23 182.13 340.63 185.21 333.09 188.37 325.61 191.29 318.03 194.31 310.47 197.43 302.93 200.35 295.27 203.45 287.6 206.77 279.93 210.01 272.15 213.55 264.38 217.42 256.66 221.34 248.88 225.65 241.2 230.36 233.67 235.19 226.19 240.43 218.96 246.06 212.07 251.84 205.39 257.97 199.17 264.44 193.5 271.02 188.19 277.88 183.55 284.99 179.65 292.17 176.21 299.56 173.56 307.11 171.73 314.71 170.33 322.44 169.69 330.27 169.77 338.12 170.1 346.06 170.98 354.06 172.31 362.08 173.56 370.14 175.03 378.24 176.61 386.34 177.77 394.47 178.82 402.59 179.7" stroke-dasharray="14 7" transform="rotate(28.48, 400, 400)" opacity="0.35"></path><path d="M399.17 193C406.79 193.24 414.21 193.28 421.41 193.14 428.61 192.47 435.59 191.73 442.34 191.01 449.08 189.99 455.6 189.17 461.87 188.63 468.16 188.08 474.23 188 480.08 188.45 485.98 189.13 491.71 190.46 497.29 192.46 502.97 194.81 508.57 197.87 514.11 201.59 519.84 205.69 525.57 210.41 531.35 215.7 537.37 221.3 543.47 227.38 549.64 233.87 556.04 240.56 562.48 247.57 568.89 254.82 575.39 262.17 581.73 269.7 587.79 277.35 593.67 285.01 599.05 292.76 603.81 300.55 608.11 308.32 611.59 316.11 614.18 323.91 616.18 331.68 617.27 339.45 617.48 347.23 617.29 354.97 616.44 362.73 615.09 370.5 613.83 378.24 612.43 386.01 611.1 393.79 610.37 401.57 609.99 409.36 610.03 417.14 610.87 424.93 612.06 432.53 613.46 439.91 615.3 447.28 617 454.42 618.35 461.3 619.57 468.14 620.08 474.7 619.78 480.92 618.95 487.08 617.14 492.88 614.4 498.29 611.06 503.61 606.88 508.51 601.98 512.98 596.71 517.35 590.95 521.29 584.83 524.8 578.67 528.27 572.36 531.35 566 534.08 559.84 536.87 553.74 539.42 547.72 541.78 542 544.38 536.36 546.95 530.79 549.56 525.48 552.62 520.17 555.87 514.84 559.4 509.66 563.53 504.38 568.03 498.95 572.92 493.6 578.44 488.05 584.32 482.28 590.51 476.53 597.13 470.53 603.86 464.28 610.55 458.03 617.28 451.51 623.64 444.76 629.42 437.98 634.73 430.97 639.11 423.74 642.37 416.5 644.72 409.04 645.74 401.39 645.32 393.74 643.88 386.08 641.1 378.44 637.16 370.81 632.52 363.2 627.05 355.64 620.97 348.09 614.73 340.6 608.26 333.2 601.73 325.83 595.56 318.55 589.61 311.41 583.99 304.32 579.01 297.38 574.46 290.64 570.35 283.98 566.93 277.55 563.87 271.39 561.12 262.48 557.89 246.48 552.25 239.5 549.31 233.07 546.24 222.09 538.09 217.42 532.81 212.91 526.85 204.56 512.31 200.54 503.86 197.66 497.97 194.87 491.72 192.18 485.16 189.31 478.52 186.61 471.61 184.15 464.47 181.66 457.29 179.54 449.92 177.87 442.38 176.36 434.84 175.43 427.15 175.13 419.34 175.12 411.53 175.76 403.79 177.03 396.13 178.51 388.46 180.52 380.86 182.97 373.34 185.47 365.79 188.27 358.29 191.32 350.84 194.23 343.34 197.29 335.87 200.45 328.43 203.39 320.92 206.42 313.41 209.53 305.92 212.44 298.35 215.49 290.79 218.69 283.27 221.78 275.69 225.11 268.16 228.7 260.73 232.29 253.32 236.2 246.05 240.45 239 244.77 232.06 249.46 225.43 254.5 219.18 259.65 213.17 265.15 207.65 270.97 202.69 276.9 198.09 283.12 194.13 289.59 190.87 296.15 188.03 302.93 185.91 309.9 184.53 316.92 183.5 324.09 183.15 331.39 183.42 338.71 183.86 346.14 184.78 353.64 186.08 361.15 187.28 368.72 188.66 376.32 190.13 383.93 191.19 391.55 192.17 399.16 193" stroke-dasharray="9 0" transform="rotate(32.04, 400, 400)" opacity="0.39"></path><path d="M395.92 206.31C403.04 206.55 409.99 206.63 416.75 206.56 423.52 206 430.1 205.38 436.49 204.77 442.89 203.86 449.1 203.1 455.14 202.58 461.21 202 467.12 201.81 472.88 202.07 478.71 202.48 484.44 203.45 490.07 205 495.83 206.84 501.54 209.3 507.24 212.37 513.11 215.77 519 219.75 524.91 224.28 531.02 229.11 537.15 234.42 543.29 240.15 549.56 246.11 555.78 252.41 561.86 259 567.93 265.73 573.73 272.67 579.16 279.79 584.36 286.96 589.02 294.26 593.03 301.63 596.61 309.02 599.43 316.46 601.43 323.93 602.95 331.39 603.69 338.86 603.69 346.33 603.41 353.79 602.6 361.24 601.39 368.67 600.31 376.1 599.14 383.51 598.03 390.89 597.46 398.27 597.18 405.62 597.23 412.91 597.99 420.2 599.03 427.26 600.23 434.07 601.85 440.87 603.35 447.4 604.57 453.65 606.03 462.83 605.05 479.5 602.21 486.93 599.51 491.7 596.02 496.11 591.83 500.14 587.25 504.14 582.13 507.78 576.58 511.09 570.9 514.42 564.96 517.47 558.87 520.28 552.86 523.23 546.82 526.03 540.78 528.75 534.95 531.74 529.16 534.77 523.42 537.91 517.9 541.47 512.4 545.24 506.9 549.27 501.57 553.82 496.19 558.69 490.74 563.86 485.38 569.53 479.9 575.46 474.27 581.57 468.69 587.98 462.92 594.39 456.97 600.67 451.03 606.91 444.87 612.73 438.52 617.96 432.16 622.73 425.59 626.63 418.83 629.5 412.06 631.57 405.09 632.43 397.94 632.02 390.8 630.7 383.64 628.19 376.51 624.62 369.38 620.43 362.29 615.45 355.25 609.86 348.22 604.09 341.27 598.01 334.42 591.82 327.59 585.85 320.89 579.99 314.34 574.36 307.84 569.22 301.52 564.41 295.42 559.96 289.39 556.08 283.6 552.54 278.09 549.28 270.12 545.25 255.89 538.33 249.67 535 243.88 531.77 233.81 524.02 229.39 519.26 225.03 514.02 216.74 501.36 212.7 493.96 209.83 488.82 207.04 483.31 204.37 477.48 201.55 471.59 198.92 465.39 196.53 458.93 194.14 452.44 192.11 445.71 190.52 438.76 189.1 431.8 188.21 424.65 187.92 417.32 187.9 409.99 188.5 402.66 189.68 395.34 191.07 388.03 192.97 380.72 195.3 373.44 197.69 366.14 200.4 358.85 203.36 351.58 206.22 344.28 209.24 336.98 212.38 329.7 215.33 322.38 218.37 315.06 221.48 307.77 224.4 300.45 227.43 293.16 230.57 285.93 233.58 278.71 236.76 271.59 240.15 264.6 243.49 257.69 247.09 250.97 250.96 244.51 254.86 238.22 259.08 232.26 263.59 226.71 268.18 221.43 273.09 216.63 278.29 212.38 283.58 208.47 289.16 205.17 294.99 202.52 300.89 200.23 307.03 198.59 313.36 197.59 319.75 196.89 326.32 196.76 333.02 197.18 339.75 197.71 346.61 198.63 353.55 199.89 360.51 201.01 367.54 202.29 374.61 203.64 381.69 204.62 388.8 205.52 395.91 206.31" stroke-dasharray="9 14" transform="rotate(35.6, 400, 400)" opacity="0.43"></path><path d="M393.53 219.61C400.17 219.86 406.68 219.98 413.05 219.97 419.43 219.52 425.67 219.02 431.77 218.52 437.88 217.73 443.87 217.06 449.74 216.58 458.55 215.88 475.81 216.42 484.35 217.94 490.14 219.33 495.91 221.27 501.68 223.75 507.57 226.5 513.47 229.8 519.36 233.6 525.36 237.67 531.35 242.2 537.26 247.16 543.21 252.34 549.02 257.88 554.62 263.73 560.11 269.74 565.28 276 570.03 282.46 574.5 289.01 578.43 295.72 581.74 302.54 584.65 309.41 586.88 316.36 588.39 323.36 589.52 330.37 589.99 337.42 589.86 344.46 589.54 351.51 588.8 358.56 587.74 365.57 586.85 372.59 585.89 379.57 584.98 386.5 584.57 393.43 584.37 400.3 584.44 407.09 585.12 413.88 586.01 420.42 587.04 426.7 589.1 435.96 592.22 453.04 592.59 460.81 591.84 468.23 586.13 481.46 581.2 487.29 577.32 491.1 572.88 494.63 567.98 497.91 562.88 501.27 557.45 504.44 551.79 507.46 546.12 510.66 540.31 513.79 534.44 516.9 528.68 520.31 522.9 523.79 517.14 527.4 511.53 531.4 505.93 535.59 500.34 540.01 494.9 544.87 489.43 549.96 483.93 555.28 478.54 560.97 473.07 566.82 467.51 572.74 462.01 578.86 456.39 584.89 450.64 590.71 444.92 596.42 439.04 601.7 433.01 606.4 426.98 610.65 420.79 614.09 414.45 616.6 408.1 618.4 401.59 619.13 394.93 618.72 388.27 617.52 381.63 615.26 375.02 612.05 368.43 608.28 361.87 603.77 355.39 598.68 348.93 593.38 342.56 587.74 336.3 581.92 330.08 576.22 323.99 570.55 318.07 565 312.2 559.82 306.52 554.87 301.06 550.18 295.66 545.97 290.5 542.04 285.61 538.35 278.51 533.6 265.83 525.35 260.25 521.53 254.98 517.94 245.57 510.08 241.32 505.56 237.04 500.74 228.77 489.36 224.72 482.77 221.86 478.21 219.09 473.31 216.46 468.09 213.72 462.83 211.17 457.27 208.87 451.42 206.59 445.55 204.67 439.41 203.17 433.03 201.82 426.64 200.99 420.02 200.71 413.18 200.68 406.34 201.23 399.45 202.33 392.54 203.62 385.62 205.4 378.67 207.59 371.72 209.86 364.75 212.45 357.77 215.3 350.79 218.09 343.79 221.05 336.79 224.15 329.8 227.09 322.8 230.13 315.82 233.24 308.88 236.17 301.96 239.19 295.09 242.31 288.32 245.27 281.59 248.38 275 251.63 268.59 254.81 262.29 258.18 256.23 261.77 250.46 265.35 244.87 269.18 239.64 273.26 234.83 279.58 228.23 293.63 218.05 301.33 214.6 309.36 212.19 326.54 210.5 335.6 211.04 341.72 211.62 347.98 212.53 354.34 213.72 360.73 214.75 367.2 215.92 373.74 217.16 380.28 218.04 386.89 218.87 393.52 219.61" stroke-dasharray="12 1" transform="rotate(39.160000000000004, 400, 400)" opacity="0.47"></path><path d="M392.51 232.91C398.69 233.17 404.79 233.32 410.8 233.37 416.82 233.02 422.75 232.64 428.59 232.25 437.34 231.31 454.53 229.94 463.02 229.84 471.55 230.13 488.59 233.01 497.13 235.73 508.72 240.33 520.17 246.85 531.19 255.04 542.07 264.04 551.96 274.41 560.28 285.76 564.04 291.6 567.28 297.63 569.94 303.8 572.27 310.03 573.99 316.38 575.1 322.79 575.93 329.24 576.21 335.74 576 342.26 575.69 348.8 575.05 355.34 574.16 361.85 573.45 368.38 572.69 374.87 571.97 381.31 571.68 387.75 571.57 394.12 571.65 400.41 572.25 406.7 573.02 412.74 573.88 418.52 575.63 427.06 578.41 442.81 578.86 449.99 578.45 456.9 574.08 469.41 570.07 475.07 566.86 478.82 563.11 482.37 558.89 485.75 549.8 492.85 539.44 499.64 528.38 506.39 517.42 514.22 506.23 522.56 495.02 531.55 489.57 536.57 484.09 541.76 478.61 547.08 473.21 552.67 467.76 558.33 462.28 563.97 456.85 569.71 451.34 575.3 445.76 580.63 440.21 585.81 434.55 590.55 428.8 594.72 423.05 598.48 417.19 601.49 411.23 603.66 405.26 605.21 399.18 605.81 392.99 605.41 386.8 604.34 380.66 602.32 374.58 599.45 368.51 596.08 362.5 592.03 356.6 587.42 350.71 582.59 344.92 577.41 339.27 572 333.65 566.64 328.17 561.23 322.87 555.85 317.61 550.73 312.54 545.76 307.68 540.96 302.87 536.54 298.28 532.33 293.94 528.32 285.38 521.48 277.76 515.18 271.13 509.13 264.43 504 258.46 498.47 253.12 492.24 248.88 487.59 240.62 476.97 236.57 470.94 232.39 464.58 224.59 450.36 221.18 442.52 219.02 437.19 217.21 431.59 215.8 425.74 214.55 419.88 213.76 413.77 213.5 407.43 213.47 401.09 213.97 394.68 214.97 388.2 216.17 381.74 217.81 375.22 219.86 368.67 222 362.12 224.45 355.54 227.17 348.96 229.86 342.38 232.73 335.8 235.76 329.24 238.66 322.69 241.67 316.18 244.77 309.74 247.71 303.33 250.73 297.01 253.83 290.82 259.59 278.68 265.86 267.29 272.71 257.04 279.37 247.54 286.89 239.57 295.28 233.5 301.74 229.79 315.82 225.3 323.41 224.47 331.24 224.33 347.78 226.02 356.42 227.56 362.23 228.5 368.16 229.56 374.18 230.68 380.21 231.47 386.32 232.23 392.5 232.91" stroke-dasharray="7 6" transform="rotate(42.72, 400, 400)" opacity="0.51"></path><path d="M393.08 246.22C404.57 246.35 415.92 246.22 427.06 245.97 438.25 244.68 449.33 243.89 460.25 243.92 471.33 243.92 482.35 245.33 493.18 248.27 504.14 251.85 514.78 257.11 524.77 263.9 534.43 271.39 542.95 280.21 549.87 290.05 555.81 300.33 559.77 311.35 561.62 322.81 562.68 334.46 562.2 346.36 560.65 358.27 559.83 370.22 559.12 382.1 558.86 393.67 560.34 405.25 562.05 415.95 563.48 425.72 565.2 435.49 565.4 444.37 563.74 452.39 561 460.54 556.06 468.03 549.21 475.01 541.44 482.47 532.3 489.82 522.25 497.26 512.06 505.65 501.43 514.48 490.63 523.78 480.06 534.1 469.35 544.71 458.58 555.2 447.99 565.78 437.19 575.28 426.2 582.93 415.26 589.08 404.01 592.31 392.53 592.11 381.05 589.63 369.88 584.04 359.16 576.08 348.47 567.22 338.3 557.23 328.81 546.85 319.41 537.18 310.76 527.86 302.96 519.13 295.22 511.66 288.27 504.67 282.11 497.98 275.78 492.19 269.99 486.21 264.7 479.82 258.9 473.76 253.39 466.92 248.25 459.17 242.63 451.46 237.58 442.72 233.44 432.98 229.49 423.21 226.98 412.45 226.29 400.77 226.41 389.1 228.45 377.09 232.11 364.95 236.15 352.84 241.3 340.65 247.2 328.59 252.77 316.65 258.76 304.98 265.06 293.87 270.82 283.12 276.99 273.2 283.6 264.45 289.92 256.4 296.93 249.82 304.65 244.98 312.33 240.98 320.83 238.73 330.06 238.24 339.35 238.14 349.34 239.29 359.89 241.41 370.48 242.89 381.57 244.58 393.07 246.22" stroke-dasharray="7 4" transform="rotate(46.28, 400, 400)" opacity="0.54"></path><path d="M395.1 259.52C405.76 259.7 416.4 259.71 426.93 259.65 437.5 258.64 448.03 258.04 458.43 258.09 468.91 257.97 479.27 259.02 489.34 261.33 499.38 264.06 508.94 268.25 517.7 273.8 526.03 279.89 533.18 287.24 538.81 295.59 543.59 304.34 546.68 313.89 548.01 323.95 548.83 334.22 548.44 344.82 547.22 355.54 546.7 366.31 546.24 377.1 546.07 387.71 547.35 398.32 548.74 408.22 549.88 417.38 551.37 426.56 551.65 435.08 550.41 442.95 548.4 451 544.5 458.63 538.88 465.95 532.44 473.75 524.59 481.55 515.73 489.48 506.58 498.19 496.81 507.25 486.71 516.57 476.69 526.59 466.45 536.65 456.14 546.35 445.95 555.93 435.61 564.37 425.19 571.03 414.81 576.34 404.27 579.07 393.65 578.81 383.03 576.62 372.81 571.7 363.1 564.64 353.41 556.72 344.26 547.61 335.76 537.95 327.29 528.7 319.5 519.53 312.43 510.71 305.33 502.87 298.86 495.38 293.02 488.19 286.93 481.8 281.26 475.36 275.99 468.7 270.26 462.44 264.81 455.63 259.76 448.16 254.35 440.8 249.56 432.62 245.68 423.6 242.02 414.59 239.72 404.71 239.08 394.02 239.17 383.33 241.01 372.36 244.35 361.3 248.07 350.29 252.9 339.27 258.5 328.45 263.89 317.79 269.76 307.49 275.95 297.82 281.69 288.52 287.78 280.09 294.23 272.81 300.35 266.15 307.01 260.83 314.22 257.07 321.32 253.96 329.1 252.34 337.51 252.19 345.92 252.26 354.98 253.36 364.62 255.27 374.25 256.55 384.44 258.03 395.09 259.52" stroke-dasharray="8 7" transform="rotate(49.84, 400, 400)" opacity="0.58"></path><path d="M398.17 272.82C408 273.04 417.87 273.19 427.68 273.3 437.52 272.56 447.31 272.17 456.95 272.3 466.6 272.18 476.05 272.99 485.1 274.84 494.01 276.92 502.33 280.22 509.78 284.7 516.79 289.58 522.65 295.6 527.12 302.57 530.95 309.87 533.34 317.97 534.32 326.65 535.02 335.51 534.78 344.8 533.87 354.31 533.63 363.88 533.38 373.57 533.28 383.24 534.38 392.92 535.49 402.09 536.34 410.72 537.59 419.39 537.87 427.61 536.92 435.4 535.47 443.38 532.44 451.12 527.91 458.7 522.69 466.7 516.14 474.77 508.56 482.95 500.61 491.72 491.93 500.7 482.79 509.77 473.59 519.26 464.1 528.59 454.47 537.38 444.89 545.91 435.17 553.29 425.42 559.01 415.7 563.54 405.91 565.81 396.12 565.5 386.33 563.6 376.99 559.31 368.18 553.11 359.37 546.11 351.08 537.93 343.4 529.08 335.7 520.42 328.56 511.62 322.04 502.96 315.41 494.99 309.29 487.25 303.65 479.75 297.73 472.92 292.16 466.1 286.94 459.2 281.31 452.69 275.99 445.82 271.1 438.52 265.98 431.36 261.49 423.59 257.9 415.18 254.55 406.8 252.46 397.72 251.88 388 251.93 378.27 253.56 368.37 256.58 358.47 259.97 348.62 264.42 338.85 269.65 329.37 274.79 320.06 280.45 311.18 286.47 302.98 292.14 295.12 298.14 288.12 304.43 282.21 310.42 276.79 316.83 272.59 323.67 269.74 330.36 267.35 337.59 266.21 345.35 266.3 353.06 266.45 361.35 267.45 370.18 269.13 378.98 270.2 388.33 271.48 398.17 272.82" stroke-dasharray="15 7" transform="rotate(53.4, 400, 400)" opacity="0.62"></path><path d="M401.62 286.13C410.62 286.38 419.66 286.63 428.63 286.91 437.6 286.43 446.5 286.26 455.17 286.51 463.82 286.46 472.16 287.16 480.03 288.68 487.72 290.3 494.75 292.92 500.91 296.54 506.67 300.41 511.39 305.28 514.9 311.03 517.96 317.02 519.85 323.78 520.61 331.16 521.28 338.68 521.21 346.69 520.6 355.04 520.6 363.42 520.52 372.06 520.49 380.83 521.42 389.59 522.27 398.06 522.88 406.2 523.87 414.37 524.08 422.3 523.32 429.97 522.27 437.81 519.92 445.55 516.32 453.23 512.19 461.24 506.86 469.32 500.53 477.47 493.84 486.02 486.37 494.66 478.36 503.22 470.22 511.98 461.69 520.43 452.94 528.23 444.19 535.69 435.28 542.04 426.31 546.86 417.37 550.68 408.37 552.54 399.4 552.2 390.44 550.55 381.92 546.85 373.9 541.48 365.87 535.38 358.31 528.15 351.27 520.19 344.19 512.24 337.57 504 331.45 495.73 325.18 487.91 319.31 480.18 313.83 472.61 308.08 465.54 302.63 458.51 297.5 451.47 292.06 444.77 286.95 437.87 282.3 430.7 277.51 423.69 273.37 416.25 270.1 408.39 267.07 400.56 265.19 392.23 264.67 383.44 264.69 374.65 266.12 365.82 268.8 357.1 271.84 348.42 275.88 339.93 280.7 331.81 285.5 323.83 290.86 316.35 296.61 309.55 302.12 303.04 307.96 297.35 314.08 292.65 319.93 288.32 326.13 285.06 332.66 282.93 339.03 281.1 345.84 280.31 353.07 280.52 360.22 280.68 367.87 281.54 375.97 282.97 384.05 283.85 392.61 284.93 401.62 286.13" stroke-dasharray="11 8" transform="rotate(56.96, 400, 400)" opacity="0.66"></path><path d="M404.72 299.43C412.88 299.71 421.02 300.05 429.04 300.46 437.06 300.23 444.93 300.28 452.51 300.68 460.04 300.75 467.2 301.42 473.84 302.76 483.19 305.14 497.63 314.21 502.26 320.9 504.73 325.77 506.28 331.37 506.94 337.58 507.64 343.88 507.75 350.72 507.42 357.96 507.61 365.23 507.69 372.86 507.7 380.75 508.48 388.64 509.11 396.41 509.48 404.03 510.22 411.68 510.33 419.23 509.67 426.68 508.88 434.25 507.05 441.82 504.2 449.36 500.98 457.13 496.72 464.97 491.56 472.8 486.09 480.87 479.85 488.91 473.04 496.74 466.06 504.62 458.64 512.08 450.93 518.85 443.18 525.25 435.21 530.61 427.14 534.6 419.08 537.76 410.94 539.26 402.81 538.89 394.69 537.49 386.95 534.34 379.64 529.74 372.31 524.52 365.38 518.23 358.88 511.21 352.31 504.09 346.12 496.57 340.31 488.88 334.36 481.46 328.73 473.99 323.41 466.6 317.88 459.55 312.62 452.53 307.67 445.52 302.51 438.79 297.69 431.94 293.35 424.97 288.97 418.13 285.21 411.05 282.28 403.71 279.59 396.41 277.92 388.79 277.46 380.9 277.45 373.01 278.69 365.23 281.04 357.66 283.71 350.13 287.31 342.88 291.66 336.05 296.06 329.34 301.02 323.15 306.4 317.63 311.64 312.31 317.22 307.76 323.08 304.09 328.73 300.66 334.69 298.14 340.92 296.57 347 295.14 353.43 294.57 360.18 294.81 366.86 294.92 373.92 295.62 381.35 296.79 388.76 297.48 396.56 298.38 404.72 299.43" stroke-dasharray="4 4" transform="rotate(60.52, 400, 400)" opacity="0.70"></path><path d="M406.83 312.74C414.12 313.02 421.31 313.43 428.32 313.96 435.32 313.95 442.1 314.2 448.56 314.75 457.94 315.35 474.06 319 480.38 322.37 485.65 326.49 492.06 338.27 493.37 345.78 494.12 351.03 494.41 356.82 494.33 363.06 494.67 369.32 494.86 376 494.91 383.03 495.55 390.06 495.99 397.12 496.17 404.15 496.67 411.2 496.66 418.27 496.03 425.31 495.38 432.45 493.92 439.62 491.65 446.78 489.15 454.08 485.78 461.4 481.65 468.65 477.27 476 472.2 483.23 466.55 490.18 460.76 497.06 454.49 503.47 447.89 509.2 441.23 514.56 434.3 518.99 427.21 522.22 420.12 524.79 412.89 525.96 405.63 525.59 398.36 524.41 391.39 521.77 384.75 517.9 378.1 513.51 371.75 508.15 365.73 502.09 359.66 495.87 353.86 489.19 348.38 482.26 342.77 475.44 337.42 468.48 332.34 461.51 327.11 454.75 322.13 447.97 317.47 441.22 312.68 434.65 308.25 428.03 304.31 421.37 300.37 414.82 297.04 408.14 294.46 401.37 292.11 394.62 290.65 387.71 290.25 380.7 290.22 373.69 291.27 366.9 293.28 360.42 295.59 353.97 298.73 347.86 302.56 342.21 306.49 336.64 310.98 331.59 315.89 327.16 320.74 322.87 325.95 319.26 331.42 316.41 336.77 313.69 342.4 311.73 348.26 310.54 354 309.39 360.03 308.93 366.29 309.12 372.5 309.16 379 309.67 385.76 310.59 392.51 311.09 399.54 311.82 406.83 312.74" stroke-dasharray="11 11" transform="rotate(64.08, 400, 400)" opacity="0.73"></path><path d="M407.49 326.04C413.87 326.33 420.1 326.79 426.09 327.39 432.06 327.57 437.78 327.99 443.14 328.69 453.69 329.26 462.55 331.62 469.01 335.94 475.01 340.17 478.66 346.76 479.95 355.45 480.99 362.28 481.91 378.3 482.12 387.37 482.63 393.56 482.92 399.86 482.93 406.21 483.22 412.57 483.08 419.01 482.45 425.47 481.25 438.54 477.34 451.84 470.9 464.69 463.85 477.6 454.44 489.56 443.49 499.23 437.93 503.61 432.06 507.17 425.99 509.73 419.9 511.76 413.63 512.65 407.25 512.29 400.87 511.31 394.68 509.14 388.73 505.95 382.76 502.33 377 497.88 371.5 492.78 360.34 482.1 349.95 469.81 340.6 457.07 330.89 444.76 322.18 432.17 315.18 419.73 311.74 413.62 308.85 407.46 306.64 401.31 304.63 395.18 303.39 389.01 303.04 382.86 303.43 373.78 308.82 357.36 313.45 350.19 320.34 341.07 329.19 333.99 339.18 329.43 348.93 325.1 359.73 323.11 371.2 323.42 376.87 323.35 382.76 323.67 388.82 324.36 394.86 324.69 401.1 325.26 407.49 326.04" stroke-dasharray="13 13" transform="rotate(67.64, 400, 400)" opacity="0.77"></path><path d="M406.56 339.34C417.48 339.54 427.57 340.59 436.34 342.44 444.97 343.36 452.08 345.71 457.23 349.6 462.19 353.26 465.36 358.82 466.72 366.14 468.62 373.47 469.47 382.58 469.32 393.26 470.44 403.94 470.38 415.23 468.99 426.6 467.88 438.05 464.68 449.62 459.52 460.6 454.03 471.44 446.55 481.24 437.63 488.93 428.55 495.57 418.27 499.23 407.33 498.98 396.39 496.98 385.83 491.35 376.01 483.23 366.08 474.42 356.71 464.01 348.28 452.97 339.67 442.08 332.04 430.8 326.02 419.67 320.28 408.71 316.63 397.71 315.83 387.11 315.94 376.51 319.01 367.27 324.37 359.72 330.17 352.23 337.77 346.55 346.48 342.94 355.13 339.33 364.75 337.58 374.89 337.66 384.94 337.09 395.64 337.68 406.56 339.34" stroke-dasharray="1 3" transform="rotate(71.2, 400, 400)" opacity="0.81"></path><path d="M404.24 352.65C413.3 352.92 421.5 354.07 428.52 355.98 438.3 358.35 450.87 368.73 453.72 377.27 455.6 383.39 456.56 391 456.53 399.97 457.36 408.94 457.08 418.47 455.68 428.04 454.59 437.61 451.91 447.17 447.75 456.07 443.46 464.75 437.6 472.42 430.49 478.26 423.28 483.31 414.95 486 405.87 485.68 396.78 484.15 387.81 479.79 379.35 473.4 370.84 466.44 362.76 458.02 355.5 448.9 348.21 439.76 341.82 430.16 336.87 420.66 332.19 411.22 329.25 401.83 328.62 392.93 328.65 384.03 331.06 376.44 335.35 370.34 340.02 364.24 346.26 359.63 353.51 356.67 360.82 353.6 368.99 351.97 377.58 351.78 386.16 351.05 395.19 351.34 404.24 352.65" stroke-dasharray="0 6" transform="rotate(74.75999999999999, 400, 400)" opacity="0.85"></path><path d="M401.03 365.95C411.45 366.83 427.9 371.75 433.56 376.08 438.27 381.07 443.21 396.35 443.74 406.68 444.32 413.92 443.91 421.54 442.58 429.11 441.49 436.66 439.23 444.07 435.88 450.82 432.53 457.37 427.99 463.02 422.46 467.21 416.9 470.85 410.38 472.73 403.15 472.38 395.93 471.26 388.69 468.04 381.8 463.26 374.9 458.07 368.34 451.63 362.47 444.55 356.65 437.36 351.6 429.7 347.75 422.05 344.13 414.41 341.88 406.79 341.41 399.62 342.28 389.4 352.4 374.71 360.5 370.35 366.28 367.71 372.81 366.17 379.7 365.74 386.6 364.92 393.83 364.97 401.03 365.95" stroke-dasharray="10 15" transform="rotate(78.32000000000001, 400, 400)" opacity="0.89"></path><path d="M397.59 379.25C408.3 379.46 416.88 382.78 422.24 388.38 427.9 393.37 431.09 401.64 430.95 412.58 431.99 423.51 429.5 435.12 424.2 444.64 419.07 453.58 410.53 459.31 399.77 459.07 389.01 457.15 378.15 449.64 369.43 439.62 360.95 429.2 355.08 417.2 354.2 406.35 354.32 395.5 359.57 387.74 367.69 383.68 376.15 379.16 386.88 377.51 397.59 379.25" stroke-dasharray="15 17" transform="rotate(81.88000000000001, 400, 400)" opacity="0.92"></path><path d="M394.66 392.56C404.7 394.21 416.89 406.64 418.16 416.94 418.71 424.26 416.75 431.61 412.97 437.35 409.32 442.79 403.56 446.11 396.44 445.77 389.32 444.69 382.22 440.13 376.62 433.86 371.18 427.36 367.49 419.59 367 412.31 368.57 402.29 384.1 392.28 394.66 392.56" stroke-dasharray="5 3" transform="rotate(85.44, 400, 400)" opacity="0.96"></path></g></svg>